<svg width="111" height="111" viewBox="0 0 111 111" fill="none" xmlns="http://www.w3.org/2000/svg">
<circle cx="2" cy="2" r="2" fill="#ABB2BF"/>
<circle cx="28.75" cy="2" r="2" fill="#ABB2BF"/>
<circle cx="55.5" cy="2" r="2" fill="#ABB2BF"/>
<circle cx="82.25" cy="2" r="2" fill="#ABB2BF"/>
<circle cx="109" cy="2" r="2" fill="#ABB2BF"/>
<circle cx="2" cy="28.75" r="2" fill="#ABB2BF"/>
<circle cx="28.75" cy="28.75" r="2" fill="#ABB2BF"/>
<circle cx="55.5" cy="28.75" r="2" fill="#ABB2BF"/>
<circle cx="82.25" cy="28.75" r="2" fill="#ABB2BF"/>
<circle cx="109" cy="28.75" r="2" fill="#ABB2BF"/>
<circle cx="2" cy="55.5" r="2" fill="#ABB2BF"/>
<circle cx="28.75" cy="55.5" r="2" fill="#ABB2BF"/>
<circle cx="55.5" cy="55.5" r="2" fill="#ABB2BF"/>
<circle cx="82.25" cy="55.5" r="2" fill="#ABB2BF"/>
<circle cx="109" cy="55.5" r="2" fill="#ABB2BF"/>
<circle cx="2" cy="82.25" r="2" fill="#ABB2BF"/>
<circle cx="28.75" cy="82.25" r="2" fill="#ABB2BF"/>
<circle cx="55.5" cy="82.25" r="2" fill="#ABB2BF"/>
<circle cx="82.25" cy="82.25" r="2" fill="#ABB2BF"/>
<circle cx="109" cy="82.25" r="2" fill="#ABB2BF"/>
<circle cx="2" cy="109" r="2" fill="#ABB2BF"/>
<circle cx="28.75" cy="109" r="2" fill="#ABB2BF"/>
<circle cx="55.5" cy="109" r="2" fill="#ABB2BF"/>
<circle cx="82.25" cy="109" r="2" fill="#ABB2BF"/>
<circle cx="109" cy="109" r="2" fill="#ABB2BF"/>
</svg>
